<svg xmlns="http://www.w3.org/2000/svg" width="512" height="512" viewBox="0 0 512 512"><rect width="512" height="512" rx="112" fill="#e14f7d"/><path d="M256 178v-14c0-14 12-22 24-28 18-9 22-34 6-48-15-13-40-10-50 8" fill="none" stroke="#ffffff" stroke-width="22" stroke-linecap="round" stroke-linejoin="round"/><path d="M256 178 92 330c-14 13-6 34 13 34h302c19 0 27-21 13-34z" fill="none" stroke="#ffffff" stroke-width="24" stroke-linejoin="round"/><path d="M256 330c-6-6-48-30-48-60 0-17 13-29 28-29 9 0 16 4 20 11 4-7 11-11 20-11 15 0 28 12 28 29 0 30-42 54-48 60z" fill="#5dbba8" stroke="#ffffff" stroke-width="8"/></svg>